{"title":"The Tomorrow People (US) S01E13 HDTV x264 AAC [GWC].mp4","uid":9573994,"size":127956145,"categoryP":"video","categoryS":"tv_shows","magnet":"?xt=urn:btih:e90dd51f3d05998e47355362ca2fa4665a026a3e&amp;dn=The+Tomorrow+People+%28US%29+S01E13+HDTV+x264+AAC+%5BGWC%5D.mp4&amp;tr=udp%3A%2F%2Ftracker.openbittorrent.com%3A80&amp;tr=udp%3A%2F%2Fopen.demonii.com%3A1337&amp;tr=udp%3A%2F%2Ftracker.coppersurfer.tk%3A6969&amp;tr=udp%3A%2F%2Fexodus.desync.com%3A6969","seeders":1,"leechers":0,"uploader":"canc232","files":1,"time":1391672940,"description":"The Tomorrow People (US) S01E13 HDTV x264 AAC [GWC]\n\nThe story of several young people from around the world who represent the next stage in human evolution, possessing special powers, including the ability to teleport and communicate with each other telepathically. Together they work to defeat the forces of evil.\n\n\nSCREENS : &lt;a href=&quot;\nhttp://s20.postimg.org/rbm7wq6il/The_Tomorrow_People_US_12_07_49.jpg&quot; rel=&quot;nofollow&quot; target=&quot;_NEW&quot;&gt;\nhttp://s20.postimg.org/rbm7wq6il/The_Tomorrow_People_US_12_07_49.jpg&lt;/a&gt; &lt;a href=&quot;\nhttp://s20.postimg.org/6srbrnsl9/The_Tomorrow_People_US_12_08_06.jpg&quot; rel=&quot;nofollow&quot; target=&quot;_NEW&quot;&gt;\nhttp://s20.postimg.org/6srbrnsl9/The_Tomorrow_People_US_12_08_06.jpg&lt;/a&gt; &lt;a href=&quot;\nhttp://s20.postimg.org/dgjc0impp/The_Tomorrow_People_US_12_08_52.jpg&quot; rel=&quot;nofollow&quot; target=&quot;_NEW&quot;&gt;\nhttp://s20.postimg.org/dgjc0impp/The_Tomorrow_People_US_12_08_52.jpg&lt;/a&gt;\n\n\nMEDIA INFO :\nGeneral \nFormat : MPEG-4 \nFormat profile : Base Media \nFile size : 122 MiB \nDuration : 42mn 36s \nOverall bit rate mode : Variable \nOverall bit rate : 400 Kbps \n\nVideo \nFormat : AVC \nFormat profile : &lt;a class=&quot;__cf_email__&quot; href=&quot;/cdn-cgi/l/email-protection&quot; data-cfemail=&quot;7139181619313d425f41&quot;&gt;[email&amp;#160;protected]&lt;/a&gt;&lt;script cf-hash='f9e31' type=&quot;text/javascript&quot;&gt;\n/* &lt;![CDATA[ */!function(){try{var t=&quot;currentScript&quot;in document?document.currentScript:function(){for(var t=document.getElementsByTagName(&quot;script&quot;),e=t.length;e--;)if(t[e].getAttribute(&quot;cf-hash&quot;))return t[e]}();if(t&amp;&amp;t.previousSibling){var e,r,n,i,c=t.previousSibling,a=c.getAttribute(&quot;data-cfemail&quot;);if(a){for(e=&quot;&quot;,r=parseInt(a.substr(0,2),16),n=2;a.length-n;n+=2)i=parseInt(a.substr(n,2),16)^r,e+=String.fromCharCode(i);e=document.createTextNode(e),c.parentNode.replaceChild(e,c)}}}catch(u){}}();/* ]]&gt; */&lt;/script&gt; \nFormat settings, CABAC : Yes \nFormat settings, ReFrames : 4 frames \nDuration : 42mn 36s \nBit rate : 337 Kbps \nMaximum bit rate : 2 067 Kbps \nWidth : 720 pixels \nHeight : 404 pixels \nDisplay aspect ratio : 16:9 \nFrame rate : 23.976 fps \nStream size : 103 MiB (84%) \nTitle : The Tomorrow People (US) S01E13 HDTV x264 AAC [GWC] \nWriting library : x264 core\n\nAudio \nFormat : AAC \nFormat profile : HE-AAC / LC \nDuration : 42mn 35s \nBit rate mode : Variable \nChannel(s) : 2 channels \nSampling rate : 48.0 KHz / 24.0 KHz \nStream size : 18.3 MiB (15%) \nLanguage : English ","torrent":{"xt":"urn:btih:e90dd51f3d05998e47355362ca2fa4665a026a3e","amp;dn":"The+Tomorrow+People+%28US%29+S01E13+HDTV+x264+AAC+%5BGWC%5D.mp4","amp;tr":["udp%3A%2F%2Ftracker.openbittorrent.com%3A80","udp%3A%2F%2Fopen.demonii.com%3A1337","udp%3A%2F%2Ftracker.coppersurfer.tk%3A6969","udp%3A%2F%2Fexodus.desync.com%3A6969"],"infoHash":"e90dd51f3d05998e47355362ca2fa4665a026a3e","infoHashBuffer":{"type":"Buffer","data":[233,13,213,31,61,5,153,142,71,53,83,98,202,47,164,102,90,2,106,62]},"announce":[],"urlList":[]}}